<svg id="newtons-cradle" viewBox="0 0 72 72">
    <style type="text/css">
        #newtons-cradle .st0{fill:#FFFFFF;stroke:#000000;stroke-width:0.7966;stroke-miterlimit:10;}
        #newtons-cradle .st1{fill:#FFDB93;}
        #newtons-cradle .st2{fill:#231F20;}
        #newtons-cradle .st3{fill:#F58776;}
    </style>
    <g id="BG">
        <g>
            <circle class="st1" cx="41.3" cy="47.2" r="3.6"/>
            <path class="st2" d="M41.3,51.3c-2.3,0-4.1-1.8-4.1-4.1c0-2.3,1.8-4.1,4.1-4.1c2.3,0,4.1,1.8,4.1,4.1
			C45.4,49.4,43.5,51.3,41.3,51.3z M41.3,44.1c-1.7,0-3.1,1.4-3.1,3.1c0,1.7,1.4,3.1,3.1,3.1c1.7,0,3.1-1.4,3.1-3.1
			C44.4,45.5,43,44.1,41.3,44.1z"/>
            <rect x="40.8" y="25.8" class="st2" width="1" height="17.8"/>
        </g>
        <g>
            <circle class="st1" cx="34.1" cy="47.2" r="3.6"/>
            <path class="st2" d="M34.1,51.3c-2.3,0-4.1-1.8-4.1-4.1c0-2.3,1.8-4.1,4.1-4.1c2.3,0,4.1,1.8,4.1,4.1
			C38.1,49.4,36.3,51.3,34.1,51.3z M34.1,44.1c-1.7,0-3.1,1.4-3.1,3.1c0,1.7,1.4,3.1,3.1,3.1c1.7,0,3.1-1.4,3.1-3.1
			C37.2,45.5,35.8,44.1,34.1,44.1z"/>
            <rect x="33.6" y="25.8" class="st2" width="1" height="17.8"/>
        </g>
        <g>
            <polygon class="st3" points="26.7,26.1 21.3,26.1 21.3,23.1 54,23.1 54,26.1 48.5,26.1 41.3,26.1 34.1,26.1 		"/>
            <path class="st2" d="M54,26.6H21.3c-0.3,0-0.5-0.2-0.5-0.5v-3.1c0-0.3,0.2-0.5,0.5-0.5H54c0.3,0,0.5,0.2,0.5,0.5v3.1
			C54.5,26.4,54.3,26.6,54,26.6z M21.8,25.6h31.8v-2.1H21.8V25.6z"/>
        </g>
    </g>
    <g id="right-ball">
        <g>
            <circle class="st1" cx="48.5" cy="47.2" r="3.6"/>
            <path class="st2" d="M48.5,51.3c-2.3,0-4.1-1.8-4.1-4.1c0-2.3,1.8-4.1,4.1-4.1s4.1,1.8,4.1,4.1C52.6,49.4,50.8,51.3,48.5,51.3z
			 M48.5,44.1c-1.7,0-3.1,1.4-3.1,3.1c0,1.7,1.4,3.1,3.1,3.1s3.1-1.4,3.1-3.1C51.6,45.5,50.2,44.1,48.5,44.1z"/>
            <rect x="48" y="25.8" class="st2" width="1" height="17.8"/>
        </g>
    </g>
    <g id="left-ball">
        <g>
            <circle class="st1" cx="26.8" cy="47.2" r="3.6"/>
            <path class="st2" d="M26.8,51.3c-2.3,0-4.1-1.8-4.1-4.1c0-2.3,1.8-4.1,4.1-4.1c2.3,0,4.1,1.8,4.1,4.1C30.9,49.4,29,51.3,26.8,51.3
			z M26.8,44.1c-1.7,0-3.1,1.4-3.1,3.1c0,1.7,1.4,3.1,3.1,3.1c1.7,0,3.1-1.4,3.1-3.1C29.9,45.5,28.5,44.1,26.8,44.1z"/>
            <rect x="26.3" y="25.8" class="st2" width="1" height="17.8"/>
        </g>
    </g>
</svg>